# xmcd
#
# Track frame offsets:
#       150
#       15029
#       37313
#       59809
#       78759
#       97560
#       116133
#       134783
#       150331
#       168943
#       184233
#       201979
#       222207
#       240104
#       259831
#       278833
#       293991
#       313501
#
# Disc length: 4424 seconds
#
# Revision: 0
# Processed by: cddbd v1.5.2PL0 Copyright (c) Steve Scherf et al.
# Submitted via: WaveLab 6.10
#
DISCID=f8114612
DTITLE=Mary Gottschalk - Here I Am
DYEAR=1900
DGENRE=
TTITLE0=Here I Am
TTITLE1=Silent Storm
TTITLE2=Wait And See
TTITLE3=Never Say Goodbye
TTITLE4=This Time (Orchestral Version)
TTITLE5=Butterflies Can Fly
TTITLE6=Ready To Fly
TTITLE7=Because Of You
TTITLE8=My Dreams
TTITLE9=Always A Reason 
TTITLE10=Where Do I Go From Here
TTITLE11=I Will Remember
TTITLE12=Your Love Will Light My Way
TTITLE13=More Than You Know
TTITLE14=This Time (Rock Version)
TTITLE15=Reality Come True
TTITLE16=Someday
TTITLE17=Rising High
EXTD=
EXTT0=
EXTT1=
EXTT2=
EXTT3=
EXTT4=
EXTT5=
EXTT6=
EXTT7=
EXTT8=
EXTT9=
EXTT10=
EXTT11=
EXTT12=
EXTT13=
EXTT14=
EXTT15=
EXTT16=
EXTT17=
PLAYORDER=
